<svg width="64" height="64" viewBox="0 0 64 64" fill="none" xmlns="http://www.w3.org/2000/svg" role="img" aria-labelledby="title desc">
  <title id="title">JobTracker logo</title>
  <desc id="desc">A job application card connected to pipeline progress nodes.</desc>
  <rect width="64" height="64" rx="18" fill="#12121B"/>
  <rect x="1" y="1" width="62" height="62" rx="17" stroke="url(#border)" stroke-opacity="0.9" stroke-width="2"/>
  <path d="M17 41C17 29.9543 25.9543 21 37 21H48" stroke="url(#arc)" stroke-width="5" stroke-linecap="round"/>
  <circle cx="17" cy="41" r="5" fill="#22D3EE"/>
  <circle cx="37" cy="21" r="5" fill="#8B5CF6"/>
  <circle cx="49" cy="21" r="5" fill="#A78BFA"/>
  <rect x="16" y="20" width="27" height="31" rx="7" fill="#F8FAFC"/>
  <rect x="22" y="15" width="15" height="10" rx="4" fill="#8B5CF6"/>
  <path d="M25 35H34" stroke="#12121B" stroke-opacity="0.72" stroke-width="3" stroke-linecap="round"/>
  <path d="M25 42H38" stroke="#12121B" stroke-opacity="0.36" stroke-width="3" stroke-linecap="round"/>
  <circle cx="45" cy="44" r="9" fill="#7C3AED"/>
  <path d="M41 44.2L44 47L50 40.5" stroke="#F8FAFC" stroke-width="3" stroke-linecap="round" stroke-linejoin="round"/>
  <defs>
    <linearGradient id="border" x1="8" y1="6" x2="56" y2="58" gradientUnits="userSpaceOnUse">
      <stop stop-color="#A78BFA"/>
      <stop offset="0.54" stop-color="#7C3AED"/>
      <stop offset="1" stop-color="#22D3EE"/>
    </linearGradient>
    <linearGradient id="arc" x1="17" y1="41" x2="48" y2="21" gradientUnits="userSpaceOnUse">
      <stop stop-color="#22D3EE"/>
      <stop offset="1" stop-color="#8B5CF6"/>
    </linearGradient>
  </defs>
</svg>
